<svg id="Ebene_1" data-name="Ebene 1" xmlns="http://www.w3.org/2000/svg" xmlns:xlink="http://www.w3.org/1999/xlink" width="150" height="150" viewBox="0 0 150 150"><defs><style>.cls-1{fill:none;}.cls-2{clip-path:url(#clip-path);}.cls-3{fill:#6eac56;}</style><clipPath id="clip-path"><rect class="cls-1" width="150" height="150"/></clipPath></defs><g class="cls-2"><path class="cls-3" d="M118.33,101.33c0,12.5-7.62,17.62-20.24,17.62h-1c-12.62,0-20.24-5-20.24-17.62v-50c0-12,7.62-17.62,20.24-17.62h1c12.62,0,20.24,5.6,20.24,17.62V62.87H107.14V53.46c0-7.38-3.34-9.88-9.53-9.88s-9.52,2.5-9.52,9.88V99.18c0,7.38,3.33,9.88,9.52,9.88s9.53-2.5,9.53-9.88V85.25h-10V75.73h21.19ZM66.66,118H31.18V34.65H66.3v9.88H42.37v26.2H62.61v10H42.37v27.38H66.66ZM150,0H0V150H150Z"/></g></svg>
