<?xml version="1.0" encoding="utf-8"?>
<!-- Generator: Adobe Illustrator 24.2.3, SVG Export Plug-In . SVG Version: 6.00 Build 0)  -->
<svg version="1.1" id="Ebene_1" xmlns="http://www.w3.org/2000/svg" xmlns:xlink="http://www.w3.org/1999/xlink" x="0px" y="0px"
	 viewBox="0 0 717.1 97.9" style="enable-background:new 0 0 717.1 97.9;" xml:space="preserve">
<style type="text/css">
	.st0{enable-background:new    ;}
	.st1{fill:#FFFFFF;}
</style>
<g class="st0">
	<path class="st1" d="M29.5,70.4l-9.5-25h-0.9H9.9v25H5.4v-58h13.7c8.8,0,13.3,4.1,13.3,12.3v8.4c0,6.3-2.7,10.2-8,11.6l9.9,25.7
		H29.5z M27.8,31.7v-5.5c0-6.9-2.6-9.6-9.1-9.6H9.9v24.8h8.9C25.3,41.3,27.8,38.5,27.8,31.7z"/>
	<path class="st1" d="M62.5,55.5H47l-3.2,14.9h-4.5l12.9-58h5.1l13.1,58h-4.6L62.5,55.5z M61.6,51.4l-6.9-32l-6.9,32H61.6z"/>
	<path class="st1" d="M103.7,58.8c0,8.3-4.3,12.3-13.1,12.3h-0.3c-8.8,0-13.1-3.9-13.1-12.3V12.4h4.5v44.9c0,6.9,2.2,9.6,8.8,9.6
		s8.8-2.7,8.8-9.6V12.4h4.5V58.8z"/>
	<path class="st1" d="M134.9,60.6h-2.6l-13.6-36.9v46.6h-4.2v-58h4.4l14.6,40.2l14.7-40.2h4.6v58h-4.5V23.8L134.9,60.6z"/>
</g>
<g class="st0">
	<path class="st1" d="M400.6,33.1V25c0-3.6-2.1-5-4.9-5c-2.8,0-4.9,1.3-4.9,5v4c0,3,1,4.3,3.7,5.9l6.8,3.8c5.5,3.1,8.9,5.7,8.9,11.9
		V59c0,8.9-5.5,12.1-14.3,12.1h-0.2c-8.8,0-14.3-3.1-14.3-12.1V48.9h9.4v8.8c0,3.6,2.1,5.1,5,5.1c2.9,0,5-1.6,5-5.1v-4.6
		c0-3-0.9-4.5-3.8-6l-6.7-3.8c-5.6-3.2-8.9-5.9-8.9-11.9v-7.6c0-8.6,6.3-11.9,14.2-11.9h0.2c8,0,14.2,3.3,14.2,11.9v9.4H400.6z"/>
	<path class="st1" d="M417.2,70.4v-58h25.4v8.4h-15.8v15.9H440v8.4h-13.3v16.7h16.1v8.4H417.2z"/>
	<path class="st1" d="M463.9,11.7h0.7c8.8,0,14.6,3.5,14.6,12.3v34.8c0,8.8-5.8,12.3-14.6,12.3h-0.7c-8.8,0-14.6-3.5-14.6-12.3V24
		C449.3,15.1,455.1,11.7,463.9,11.7z M464.2,62.6c3.1,0,5.3-1.2,5.3-5.3V25.5c0-4.1-2.2-5.3-5.3-5.3s-5.3,1.2-5.3,5.3v31.8
		C458.9,61.4,461.1,62.6,464.2,62.6z"/>
	<path class="st1" d="M516.1,58.8c0,8.9-5.6,12.3-14.4,12.3h-0.3c-8.8,0-14.4-3.2-14.4-12.3V12.4h9.6v44.9c0,4.1,1.8,5.3,5,5.3
		s5-1.2,5-5.3V12.4h9.6V58.8z"/>
	<path class="st1" d="M548.6,70.4h-24.4v-58h9.6v49.4h14.8V70.4z"/>
</g>
<g class="st0">
	<path class="st1" d="M223.9,24.7l-1.5,8.4c-1.1,6.4-4.1,10.3-9.9,11.7l5.3,25.6h-4.7l-5.1-25H207h-9.2l-4.4,25h-4.5l10.2-58h13.7
		C220.7,12.4,225.3,16.6,223.9,24.7z M211.8,16.6h-8.9l-4.4,24.8h8.9c6.5,0,9.6-2.8,10.8-9.6l1-5.5
		C220.3,19.3,218.3,16.6,211.8,16.6z"/>
	<path class="st1" d="M249.1,11.7h0.7c8,0,12.5,4.1,11.1,12.3l-6.1,34.8c-1.5,8.1-5.8,12.3-15.4,12.3h-0.7c-8,0-12.5-4.1-11.1-12.3
		l6.1-34.8C235.1,15.8,239.5,11.7,249.1,11.7z M239.6,66.9c6.5,0,9.6-2.7,10.8-9.6l5.6-31.8c1.1-6.9-0.9-9.6-7.5-9.6
		c-6.5,0-9.6,2.7-10.8,9.6l-5.6,31.8C231.1,64.2,233.1,66.9,239.6,66.9z"/>
	<path class="st1" d="M286.5,11.7h0.7c8,0,12.5,4.1,11.1,12.3l-6.1,34.8c-1.5,8.1-5.8,12.3-15.4,12.3h-0.7c-8,0-12.5-4.1-11.1-12.3
		l6.1-34.8C272.6,15.8,276.9,11.7,286.5,11.7z M277.1,66.9c6.5,0,9.6-2.7,10.9-9.6l5.6-31.8c1.1-6.9-0.9-9.6-7.5-9.6
		s-9.6,2.7-10.8,9.6l-5.6,31.8C268.5,64.2,270.5,66.9,277.1,66.9z"/>
	<path class="st1" d="M322.8,60.6h-2.6l-7-36.9l-8.3,46.6h-4.2l10.2-58h4.4l7.5,40.2l21.7-40.2h4.7l-10.2,58h-4.5l8.3-46.6
		L322.8,60.6z"/>
</g>
</svg>
