<?xml version="1.0" encoding="utf-8"?>
<!-- Generator: Adobe Illustrator 24.2.0, SVG Export Plug-In . SVG Version: 6.00 Build 0)  -->
<svg version="1.1" id="Ebene_1" xmlns="http://www.w3.org/2000/svg" xmlns:xlink="http://www.w3.org/1999/xlink" x="0px" y="0px"
	 viewBox="0 0 717.1 97.9" style="enable-background:new 0 0 717.1 97.9;" xml:space="preserve">
<style type="text/css">
	.st0{enable-background:new    ;}
	.st1{fill:#FFFFFF;}
</style>
<g class="st0">
	<path class="st1" d="M29.5,70.5l-9.5-25h-0.9H9.9v25H5.4v-58h13.7c8.8,0,13.3,4.1,13.3,12.3v8.4c0,6.3-2.7,10.2-8,11.6l9.9,25.7
		H29.5z M27.9,31.8v-5.5c0-6.9-2.6-9.6-9.1-9.6H9.9v24.8h8.9C25.3,41.4,27.9,38.6,27.9,31.8z"/>
	<path class="st1" d="M62.6,55.5H47l-3.2,14.9h-4.5l12.9-58h5.1l13.1,58h-4.6L62.6,55.5z M61.7,51.5l-6.9-32l-6.9,32H61.7z"/>
	<path class="st1" d="M103.7,58.9c0,8.3-4.3,12.3-13.1,12.3h-0.3c-8.8,0-13.1-3.9-13.1-12.3V12.5h4.5v44.9c0,6.9,2.2,9.6,8.8,9.6
		s8.8-2.7,8.8-9.6V12.5h4.5V58.9z"/>
	<path class="st1" d="M134.9,60.7h-2.6l-13.6-36.9v46.6h-4.2v-58h4.4l14.6,40.2l14.7-40.2h4.6v58h-4.5V23.8L134.9,60.7z"/>
</g>
<g class="st0">
	<path class="st1" d="M405.6,62h-5.4l-8.7-27v35.4h-8.9v-58h9.1l11.2,33.7l11.3-33.7h9.4v58h-9.3V35L405.6,62z"/>
	<path class="st1" d="M446.1,11.8h0.7c8.8,0,14.6,3.5,14.6,12.3v34.8c0,8.8-5.8,12.3-14.6,12.3h-0.7c-8.8,0-14.6-3.5-14.6-12.3V24.1
		C431.5,15.2,437.3,11.8,446.1,11.8z M446.4,62.7c3.1,0,5.3-1.2,5.3-5.3V25.6c0-4.1-2.2-5.3-5.3-5.3c-3.1,0-5.3,1.2-5.3,5.3v31.8
		C441.1,61.5,443.3,62.7,446.4,62.7z"/>
	<path class="st1" d="M469.3,70.5v-58h9.6l12.2,35.9V12.5h8.8v58h-9.1l-12.7-37.7v37.7H469.3z"/>
	<path class="st1" d="M533.8,20.9h-9.7v49.5h-9.6V20.9h-9.7v-8.4h29V20.9z"/>
	<path class="st1" d="M560.6,70.5l-7.4-23.1h-4.8v23.1h-9.6v-58h15c8.8,0,14.6,3.5,14.6,12.3v10.4c0,5.5-2.3,9-6.3,10.8l8.3,24.6
		H560.6z M548.4,39.1h5.1c3.1,0,5.3-1.2,5.3-5.3v-7.5c0-4.1-2.2-5.3-5.3-5.3h-5.1V39.1z"/>
	<path class="st1" d="M576.2,70.5v-58h25.4v8.4h-15.8v15.9H599v8.4h-13.3V62h16.1v8.4H576.2z"/>
	<path class="st1" d="M627.1,57.5h-10.6l-2.1,12.9h-9.3l10.8-58H628l10.9,58h-9.8L627.1,57.5z M625.9,49.6l-4.1-25.8l-4.1,25.8
		H625.9z"/>
	<path class="st1" d="M668.2,70.5h-24.4v-58h9.6v49.4h14.8V70.5z"/>
</g>
<g class="st0">
	<path class="st1" d="M223.9,24.7l-1.5,8.4c-1.1,6.4-4.1,10.3-9.9,11.7l5.3,25.6h-4.7l-5.1-25H207h-9.2l-4.4,25H189l10.2-58h13.7
		C220.8,12.5,225.3,16.6,223.9,24.7z M211.8,16.6H203l-4.4,24.8h8.9c6.5,0,9.6-2.8,10.8-9.6l1-5.5C220.3,19.3,218.4,16.6,211.8,16.6
		z"/>
	<path class="st1" d="M249.1,11.8h0.7c8,0,12.5,4.1,11.1,12.3l-6.1,34.8c-1.5,8.1-5.8,12.3-15.4,12.3h-0.7c-8,0-12.5-4.1-11.1-12.3
		l6.1-34.8C235.2,15.9,239.5,11.8,249.1,11.8z M239.6,67c6.5,0,9.6-2.7,10.9-9.6l5.6-31.8c1.1-6.9-0.9-9.6-7.5-9.6
		c-6.5,0-9.6,2.7-10.8,9.6l-5.6,31.8C231.1,64.2,233.1,67,239.6,67z"/>
	<path class="st1" d="M286.5,11.8h0.7c8,0,12.5,4.1,11.1,12.3l-6.1,34.8c-1.5,8.1-5.8,12.3-15.4,12.3h-0.7c-8,0-12.5-4.1-11.1-12.3
		l6.1-34.8C272.6,15.9,276.9,11.8,286.5,11.8z M277.1,67c6.5,0,9.6-2.7,10.9-9.6l5.6-31.8c1.1-6.9-0.9-9.6-7.5-9.6
		c-6.5,0-9.6,2.7-10.8,9.6l-5.6,31.8C268.6,64.2,270.5,67,277.1,67z"/>
	<path class="st1" d="M322.8,60.7h-2.6l-7-36.9l-8.3,46.6h-4.2l10.2-58h4.4l7.5,40.2l21.7-40.2h4.7l-10.2,58h-4.5l8.3-46.6
		L322.8,60.7z"/>
</g>
</svg>
