<svg xmlns="http://www.w3.org/2000/svg" width="1280" height="800" viewBox="0 0 1280 800"><defs><style>.cls-1{isolation:isolate;}.cls-2{fill:#cfcfcf;}.cls-3,.cls-4{fill:#6eac56;}.cls-3{mix-blend-mode:multiply;}</style></defs><title>Background_dunkler</title><g class="cls-1"><g id="Ebene_1" data-name="Ebene 1"><rect class="cls-2" width="1280" height="800"/><rect class="cls-3" x="1206.93" y="697.13" width="73.07" height="30.56"/><rect class="cls-4" x="1054.4" y="648.16" width="105.97" height="0.57"/><polygon class="cls-4" points="1086.76 626.81 1084.69 621.53 1083.4 621.53 1086.76 629.93 1088.87 624.34 1090.9 629.93 1094.43 621.53 1093.14 621.53 1090.95 626.81 1088.9 621.15 1086.76 626.81"/><rect class="cls-4" x="1095.28" y="621.53" width="1.19" height="7.9"/><path class="cls-4" d="M1099.44,625.16h.37c1.11,0,1.7-.44,1.7-1.29s-.55-1.21-1.65-1.21h-.42Zm3.92,4.27h-1.45l-2.26-3.24h-.21v3.24h-1.2v-7.9h1.4a3.49,3.49,0,0,1,2.36.68,2.12,2.12,0,0,1,.67,1.64,2.2,2.2,0,0,1-1.75,2.22Z"/><path class="cls-4" d="M1111.07,623.28c-.36-.61-.62-.77-1.17-.77a1.05,1.05,0,0,0-1.15,1c0,.4.28.69.86.93l.78.33c1.28.53,1.85,1.22,1.85,2.31a2.48,2.48,0,0,1-2.54,2.53,2.43,2.43,0,0,1-2.51-2.33l1.2-.26c.13,1.15.63,1.47,1.36,1.47a1.26,1.26,0,0,0,1.29-1.32c0-.61-.32-1-1.12-1.34l-.76-.32a2.19,2.19,0,0,1-1.63-2,2.23,2.23,0,0,1,2.38-2.09,2.37,2.37,0,0,1,2.13,1.33Z"/><rect class="cls-4" x="1113.56" y="621.53" width="1.19" height="7.9"/><polygon class="cls-4" points="1116.52 621 1116.52 629.43 1117.72 629.43 1117.72 623.9 1123.48 629.91 1123.48 621.53 1122.28 621.53 1122.28 627.02 1116.52 621"/><path class="cls-4" d="M1126.46,628.31h.53a3.32,3.32,0,0,0,2.23-.65,2.8,2.8,0,0,0,1-2.18c0-1.61-1-2.83-3.19-2.83h-.53Zm-1.19-6.78h1.66a6.88,6.88,0,0,1,1.88.24,4,4,0,0,1,1.3,6.65,4.1,4.1,0,0,1-3.2,1h-1.64Z"/><path class="cls-4" d="M1058.29,634.17c-.37-.61-.62-.77-1.17-.77a1.06,1.06,0,0,0-1.16,1c0,.4.29.69.86.93l.79.33c1.28.53,1.85,1.22,1.85,2.31a2.48,2.48,0,0,1-2.54,2.53,2.42,2.42,0,0,1-2.51-2.33l1.2-.26c.13,1.15.63,1.47,1.36,1.47a1.26,1.26,0,0,0,1.29-1.32c0-.61-.33-1-1.12-1.34l-.77-.32a2.18,2.18,0,0,1-1.62-2,2.23,2.23,0,0,1,2.38-2.09,2.37,2.37,0,0,1,2.13,1.33Z"/><path class="cls-4" d="M1062,636h.45c1.09,0,1.64-.42,1.64-1.26s-.56-1.23-1.69-1.23h-.4Zm0,1.11v3.2h-1.19v-7.9h1.35a6.21,6.21,0,0,1,1.5.14,2.24,2.24,0,0,1,1.58,2.2c0,1.47-1.08,2.36-2.68,2.36Z"/><path class="cls-4" d="M1070,639.35a2.94,2.94,0,0,0,3-3,2.91,2.91,0,0,0-2.92-3,3,3,0,0,0,0,6m.06-7.07a4.1,4.1,0,1,1-4.15,4.06,4.14,4.14,0,0,1,4.15-4.06"/><path class="cls-4" d="M1076.76,636.05h.38c1.11,0,1.69-.44,1.69-1.29s-.54-1.21-1.64-1.21h-.43Zm3.93,4.27h-1.46l-2.25-3.24h-.22v3.24h-1.19v-7.9h1.4a3.47,3.47,0,0,1,2.36.69,2.09,2.09,0,0,1,.67,1.63,2.21,2.21,0,0,1-1.75,2.22Z"/><polygon class="cls-4" points="1083.8 633.54 1083.8 640.32 1082.61 640.32 1082.61 633.54 1080.79 633.54 1080.79 632.42 1085.61 632.42 1085.61 633.54 1083.8 633.54"/><path class="cls-4" d="M1087.72,639.2h.54a3.33,3.33,0,0,0,2.23-.65,2.79,2.79,0,0,0,1-2.18c0-1.61-1-2.83-3.18-2.83h-.54Zm-1.19-6.78h1.67a6.81,6.81,0,0,1,1.87.24,4,4,0,0,1,1.3,6.66,4.13,4.13,0,0,1-3.2,1h-1.64Z"/><polygon class="cls-4" points="1098.37 633.54 1095.21 633.54 1095.21 635.44 1098.29 635.44 1098.29 636.56 1095.21 636.56 1095.21 639.2 1098.37 639.2 1098.37 640.32 1094.02 640.32 1094.02 632.42 1098.37 632.42 1098.37 633.54"/><path class="cls-4" d="M1100.9,632.42v4.76c0,1.65.79,2.17,1.73,2.17s1.74-.52,1.74-2.17v-4.76h1.18v5.08a2.92,2.92,0,1,1-5.84,0v-5.08Z"/><polygon class="cls-4" points="1109.49 633.54 1109.49 640.32 1108.31 640.32 1108.31 633.54 1106.48 633.54 1106.48 632.42 1111.3 632.42 1111.3 633.54 1109.49 633.54"/><path class="cls-4" d="M1115.67,634.17c-.36-.61-.61-.77-1.17-.77a1.05,1.05,0,0,0-1.15,1c0,.4.28.69.86.93l.78.33c1.28.53,1.86,1.22,1.86,2.31a2.48,2.48,0,0,1-2.55,2.53,2.43,2.43,0,0,1-2.51-2.33l1.2-.26c.13,1.15.63,1.47,1.36,1.47a1.26,1.26,0,0,0,1.29-1.32c0-.61-.32-1-1.12-1.34l-.76-.32a2.19,2.19,0,0,1-1.63-2,2.23,2.23,0,0,1,2.38-2.09,2.4,2.4,0,0,1,2.14,1.33Z"/><path class="cls-4" d="M1123.92,634.26a3.24,3.24,0,0,0-2.14-.86,3,3,0,1,0,2.14,5.05v1.43a4.22,4.22,0,0,1-2.15.59,4.05,4.05,0,0,1-4.07-4.07,4.11,4.11,0,0,1,4.17-4.13,4.06,4.06,0,0,1,2.05.58Z"/><polygon class="cls-4" points="1126.54 635.51 1129.94 635.51 1129.94 632.42 1131.14 632.42 1131.14 640.32 1129.94 640.32 1129.94 636.63 1126.54 636.63 1126.54 640.32 1125.35 640.32 1125.35 632.42 1126.54 632.42 1126.54 635.51"/><polygon class="cls-4" points="1134.11 632.42 1134.11 639.2 1136.44 639.2 1136.44 640.32 1132.92 640.32 1132.92 632.42 1134.11 632.42"/><path class="cls-4" d="M1142,637.28l-1.17-2.68-1.23,2.68Zm.48,1.12h-3.38l-.88,1.92H1137l3.91-8.39,3.77,8.39h-1.31Z"/><polygon class="cls-4" points="1145.52 640.32 1145.52 631.89 1151.28 637.91 1151.28 632.42 1152.48 632.42 1152.48 640.8 1146.72 634.79 1146.72 640.32 1145.52 640.32"/><path class="cls-4" d="M1155.46,639.2h.54a3.35,3.35,0,0,0,2.23-.65,2.82,2.82,0,0,0,1-2.18c0-1.61-1-2.83-3.18-2.83h-.54Zm-1.19-6.78h1.66a6.88,6.88,0,0,1,1.88.24,4,4,0,0,1,1.3,6.66,4.13,4.13,0,0,1-3.2,1h-1.64Z"/><rect class="cls-4" x="1054.41" y="696.63" width="105.97" height="4.43"/><path class="cls-4" d="M1130.77,727.87c-.32,0-.63,0-.94,0a10.78,10.78,0,0,0-8-9.49h0a9,9,0,1,1,9,9.54m-8.89-7.64a9,9,0,0,1,6.09,7.19,9,9,0,0,1-6.09-7.19m6.17,9.1a9,9,0,0,1-17.94,0,10.82,10.82,0,0,0,8-9.5h0c.31,0,.62-.05.94-.05s.63,0,.94.05a10.78,10.78,0,0,0,8,9.49Zm-21.6-1.51a10.77,10.77,0,0,0-8-9.49h0a9,9,0,0,1,17.95,0,10.81,10.81,0,0,0-8,9.5h0a7.3,7.3,0,0,1-.94,0,7.4,7.4,0,0,1-.94,0m-1.77,1.51a9,9,0,0,1-17.94,0,10.79,10.79,0,0,0,8-9.5h0c.31,0,.62-.05.94-.05a7.42,7.42,0,0,1,.94.06,10.82,10.82,0,0,0,8,9.49M1075,718.88a9,9,0,0,1,18-.55,10.8,10.8,0,0,0-8,9.49h0a7.3,7.3,0,0,1-.94,0,9,9,0,0,1-9-9m15.35,6.36a9,9,0,0,1-3.56,2.19,9,9,0,0,1,6.09-7.2,9,9,0,0,1-2.53,5m8.13-5a9,9,0,0,1,6.09,7.19,9,9,0,0,1-6.09-7.19m15.24,5a9.06,9.06,0,0,1-3.55,2.19,9,9,0,0,1,6.08-7.2,9,9,0,0,1-2.53,5m17-17.15A10.8,10.8,0,0,0,1120,718h0c-.31,0-.62,0-.94,0s-.63,0-.93,0h0a10.79,10.79,0,0,0-21.51,0h0c-.31,0-.62,0-.93,0s-.63,0-.94,0h0A10.79,10.79,0,1,0,1084,729.67c.31,0,.63,0,.93,0h0a10.79,10.79,0,0,0,21.51,0h0c.31,0,.62,0,.93,0s.63,0,.94,0h0a10.79,10.79,0,0,0,21.51,0h0c.31,0,.62,0,.94,0a10.79,10.79,0,0,0,0-21.58"/><path class="cls-4" d="M1150.81,670c3.5,0,5.35-1.62,5.35-4.18,0-2.76-2.3-4.19-5.49-4.19h-12.05V670Zm-.16,13.81c4.15,0,6-2.09,6-4.66s-1.75-4.65-5.79-4.65h-12.24v9.31Zm6.95-11.59a7.94,7.94,0,0,1,3.84,6.94c0,5.09-3.4,9.15-11,9.15H1133.8V657.09h16.87c7.72,0,10.31,4.37,10.31,8.61a8.19,8.19,0,0,1-3.38,6.48"/><path class="cls-4" d="M1087.42,684.33a11.33,11.33,0,0,1-5.91-1.66,16.22,16.22,0,0,0,0-20,11.4,11.4,0,0,1,5.93-1.66,11.66,11.66,0,0,1,0,23.32m-19.07-.56h-9.12V661.59h9.12a13.18,13.18,0,0,1,6,1.36,16.07,16.07,0,0,0,0,19.46h0a13,13,0,0,1-6,1.36m9.65-4.4a11.79,11.79,0,0,1,0-13.39,11.61,11.61,0,0,1,0,13.39m9.44-22.88a16.35,16.35,0,0,0-9.57,3.07,18.74,18.74,0,0,0-9.89-2.47H1054.4v31.19H1068a18.85,18.85,0,0,0,9.9-2.47h0a16.24,16.24,0,1,0,9.56-29.31"/><path class="cls-4" d="M1114.74,674.32c-7.33-.42-9.57-4.45-9.57-8.62s2.59-8.61,10.31-8.61h15.22l-1.66,4.5h-13.56c-3.31,0-5.49,1.34-5.49,4.11,0,2.45,1.72,3.77,5,4l5.6.36c7.43.43,10.19,3.83,10.19,9.07,0,5.08-3.38,9.15-11,9.15h-16.26l1.65-4.49h14.71c4.38,0,6.08-2.28,6.08-4.65,0-2.85-1.87-4.13-5.61-4.42Z"/><rect class="cls-3" y="60" width="680" height="63"/><rect class="cls-3" y="40" width="206" height="9"/><rect class="cls-3" y="143" width="111" height="4"/></g></g></svg>