<?xml version="1.0" encoding="utf-8"?>
<!-- Generator: Adobe Illustrator 24.0.1, SVG Export Plug-In . SVG Version: 6.00 Build 0)  -->
<svg version="1.1" id="Ebene_1" xmlns="http://www.w3.org/2000/svg" xmlns:xlink="http://www.w3.org/1999/xlink" x="0px" y="0px"
	 viewBox="0 0 1280 800" style="enable-background:new 0 0 1280 800;" xml:space="preserve">
<style type="text/css">
	.st0{fill:#f0f0f0;}
	.st1{fill:#6EAC56;}
</style>
<title>background</title>
<g>
	<g id="Ebene_1_1_">
		<rect class="st0" width="1280" height="800"/>
		<rect x="1206.9" y="707.1" class="st1" width="73.1" height="30.6"/>
		<rect x="1054.4" y="685.2" class="st1" width="106" height="0.6"/>
		<polygon class="st1" points="1086.8,663.8 1084.7,658.5 1083.4,658.5 1086.8,666.9 1088.9,661.3 1090.9,666.9 1094.4,658.5 
			1093.1,658.5 1090.9,663.8 1088.9,658.2 		"/>
		<rect x="1095.3" y="658.5" class="st1" width="1.2" height="7.9"/>
		<path class="st1" d="M1099.4,662.2h0.4c1.1,0,1.7-0.4,1.7-1.3s-0.6-1.2-1.7-1.2h-0.4L1099.4,662.2z M1103.4,666.4h-1.4l-2.3-3.2
			h-0.2v3.2h-1.2v-7.9h1.4c0.8-0.1,1.7,0.2,2.4,0.7c0.5,0.4,0.7,1,0.7,1.6c0,1.1-0.7,2-1.8,2.2L1103.4,666.4z"/>
		<path class="st1" d="M1111.1,660.3c-0.4-0.6-0.6-0.8-1.2-0.8c-0.6-0.1-1.1,0.4-1.1,0.9c0,0,0,0,0,0.1c0,0.4,0.3,0.7,0.9,0.9
			l0.8,0.3c1.3,0.5,1.8,1.2,1.8,2.3c0,1.4-1.1,2.5-2.4,2.5c0,0-0.1,0-0.1,0c-1.3,0-2.5-1-2.5-2.3l1.2-0.3c0.1,1.2,0.6,1.5,1.4,1.5
			c0.7,0,1.3-0.5,1.3-1.2c0,0,0-0.1,0-0.1c0-0.6-0.3-1-1.1-1.3l-0.8-0.3c-0.9-0.2-1.6-1.1-1.6-2c0.1-1.2,1.1-2.2,2.4-2.1
			c0,0,0,0,0,0c0.9,0,1.7,0.5,2.1,1.3L1111.1,660.3z"/>
		<rect x="1113.6" y="658.5" class="st1" width="1.2" height="7.9"/>
		<polygon class="st1" points="1116.5,658 1116.5,666.4 1117.7,666.4 1117.7,660.9 1123.5,666.9 1123.5,658.5 1122.3,658.5 
			1122.3,664 		"/>
		<path class="st1" d="M1126.5,665.3h0.5c0.8,0.1,1.6-0.2,2.2-0.7c0.6-0.5,1-1.3,1-2.2c0-1.6-1-2.8-3.2-2.8h-0.5L1126.5,665.3z
			 M1125.3,658.5h1.7c0.6,0,1.3,0.1,1.9,0.2c2.1,0.8,3.1,3.1,2.3,5.2c-0.2,0.6-0.6,1.1-1,1.5c-0.9,0.8-2,1.1-3.2,1h-1.6
			L1125.3,658.5z"/>
		<path class="st1" d="M1058.3,671.2c-0.4-0.6-0.6-0.8-1.2-0.8c-0.6-0.1-1.1,0.4-1.2,1c0,0,0,0,0,0c0,0.4,0.3,0.7,0.9,0.9l0.8,0.3
			c1.3,0.5,1.8,1.2,1.8,2.3c0,1.4-1.1,2.5-2.4,2.5c0,0-0.1,0-0.1,0c-1.3,0.1-2.5-1-2.5-2.3c0,0,0,0,0,0l1.2-0.3
			c0.1,1.2,0.6,1.5,1.4,1.5c0.7,0,1.3-0.5,1.3-1.2c0,0,0-0.1,0-0.1c0-0.6-0.3-1-1.1-1.3l-0.8-0.3c-0.9-0.2-1.6-1.1-1.6-2
			c0.1-1.2,1.1-2.2,2.4-2.1c0,0,0,0,0,0c0.9,0,1.7,0.5,2.1,1.3L1058.3,671.2z"/>
		<path class="st1" d="M1062,673h0.4c1.1,0,1.6-0.4,1.6-1.3s-0.6-1.2-1.7-1.2h-0.4V673z M1062,674.1v3.2h-1.2v-7.9h1.3
			c0.5,0,1,0,1.5,0.1c1,0.3,1.6,1.2,1.6,2.2c0,1.5-1.1,2.4-2.7,2.4H1062z"/>
		<path class="st1" d="M1070,676.3c1.6,0,3-1.3,3-2.9c0,0,0-0.1,0-0.1c0-1.6-1.2-2.9-2.8-3c0,0-0.1,0-0.1,0c-1.7,0-3,1.3-3,3
			S1068.4,676.3,1070,676.3 M1070.1,669.3c2.3,0,4.1,1.9,4,4.1c0,2.3-1.9,4.1-4.1,4c-2.3,0-4.1-1.9-4-4.1
			C1066,671.1,1067.9,669.3,1070.1,669.3"/>
		<path class="st1" d="M1076.8,673h0.4c1.1,0,1.7-0.4,1.7-1.3s-0.5-1.2-1.6-1.2h-0.4L1076.8,673z M1080.7,677.3h-1.5l-2.3-3.2h-0.2
			v3.2h-1.2v-7.9h1.4c0.8-0.1,1.7,0.2,2.4,0.7c0.5,0.4,0.7,1,0.7,1.6c0,1.1-0.7,2-1.8,2.2L1080.7,677.3z"/>
		<polygon class="st1" points="1083.8,670.5 1083.8,677.3 1082.6,677.3 1082.6,670.5 1080.8,670.5 1080.8,669.4 1085.6,669.4 
			1085.6,670.5 		"/>
		<path class="st1" d="M1087.7,676.2h0.5c0.8,0.1,1.6-0.2,2.2-0.7c0.6-0.5,1-1.3,1-2.2c0-1.6-1-2.8-3.2-2.8h-0.5L1087.7,676.2z
			 M1086.5,669.4h1.7c0.6,0,1.3,0.1,1.9,0.2c2.1,0.8,3.1,3.1,2.3,5.2c-0.2,0.6-0.6,1.1-1,1.5c-0.9,0.8-2,1.1-3.2,1h-1.6
			L1086.5,669.4z"/>
		<polygon class="st1" points="1098.4,670.5 1095.2,670.5 1095.2,672.4 1098.3,672.4 1098.3,673.6 1095.2,673.6 1095.2,676.2 
			1098.4,676.2 1098.4,677.3 1094,677.3 1094,669.4 1098.4,669.4 		"/>
		<path class="st1" d="M1100.9,669.4v4.8c0,1.7,0.8,2.2,1.7,2.2s1.7-0.5,1.7-2.2v-4.8h1.2v5.1c0,1.6-1.3,2.9-2.9,2.9
			c-1.6,0-2.9-1.3-2.9-2.9c0,0,0,0,0,0v-5.1H1100.9z"/>
		<polygon class="st1" points="1109.5,670.5 1109.5,677.3 1108.3,677.3 1108.3,670.5 1106.5,670.5 1106.5,669.4 1111.3,669.4 
			1111.3,670.5 		"/>
		<path class="st1" d="M1115.7,671.2c-0.4-0.6-0.6-0.8-1.2-0.8c-0.6-0.1-1.1,0.4-1.1,0.9c0,0,0,0,0,0.1c0,0.4,0.3,0.7,0.9,0.9
			l0.8,0.3c1.3,0.5,1.9,1.2,1.9,2.3c0,1.4-1.1,2.5-2.4,2.5c0,0-0.1,0-0.1,0c-1.3,0-2.5-1-2.5-2.3l1.2-0.3c0.1,1.2,0.6,1.5,1.4,1.5
			c0.7,0,1.3-0.5,1.3-1.2c0,0,0-0.1,0-0.1c0-0.6-0.3-1-1.1-1.3l-0.8-0.3c-0.9-0.2-1.6-1.1-1.6-2c0.1-1.2,1.1-2.2,2.4-2.1
			c0,0,0,0,0,0c0.9,0,1.7,0.5,2.1,1.3L1115.7,671.2z"/>
		<path class="st1" d="M1123.9,671.3c-0.6-0.5-1.3-0.8-2.1-0.9c-1.7,0-3,1.3-3,2.9c0,1.7,1.3,3,2.9,3c0.8,0,1.7-0.3,2.2-0.9v1.4
			c-0.7,0.4-1.4,0.6-2.2,0.6c-2.2,0-4.1-1.8-4.1-4c0,0,0,0,0,0c0-2.3,1.8-4.1,4.1-4.1c0,0,0.1,0,0.1,0c0.7,0,1.4,0.2,2.1,0.6
			L1123.9,671.3z"/>
		<polygon class="st1" points="1126.5,672.5 1129.9,672.5 1129.9,669.4 1131.1,669.4 1131.1,677.3 1129.9,677.3 1129.9,673.6 
			1126.5,673.6 1126.5,677.3 1125.3,677.3 1125.3,669.4 1126.5,669.4 		"/>
		<polygon class="st1" points="1134.1,669.4 1134.1,676.2 1136.4,676.2 1136.4,677.3 1132.9,677.3 1132.9,669.4 		"/>
		<path class="st1" d="M1142,674.3l-1.2-2.7l-1.2,2.7H1142z M1142.5,675.4h-3.4l-0.9,1.9h-1.2l3.9-8.4l3.8,8.4h-1.3L1142.5,675.4z"
			/>
		<polygon class="st1" points="1145.5,677.3 1145.5,668.9 1151.3,674.9 1151.3,669.4 1152.5,669.4 1152.5,677.8 1146.7,671.8 
			1146.7,677.3 		"/>
		<path class="st1" d="M1155.5,676.2h0.5c0.8,0.1,1.6-0.2,2.2-0.7c0.6-0.5,1-1.3,1-2.2c0-1.6-1-2.8-3.2-2.8h-0.5L1155.5,676.2z
			 M1154.3,669.4h1.7c0.6,0,1.3,0.1,1.9,0.2c2.1,0.8,3.1,3.1,2.3,5.2c-0.2,0.6-0.6,1.1-1,1.5c-0.9,0.8-2,1.1-3.2,1h-1.6
			L1154.3,669.4z"/>
		<rect x="1054.4" y="733.6" class="st1" width="106" height="4.4"/>
		<path class="st1" d="M1130.8,764.9c-0.3,0-0.6,0-0.9,0c-0.4-4.5-3.6-8.3-8-9.5l0,0c0.3-5,4.6-8.7,9.5-8.4c5,0.3,8.7,4.6,8.4,9.5
			C1139.5,761.2,1135.6,764.9,1130.8,764.9 M1121.9,757.3c3.2,1.1,5.6,3.8,6.1,7.2C1124.8,763.4,1122.5,760.6,1121.9,757.3
			 M1128.1,766.4c-0.4,5-4.8,8.6-9.7,8.2c-4.4-0.4-7.9-3.8-8.2-8.2c4.4-1.2,7.6-5,8-9.5l0,0c0.3,0,0.6,0,0.9,0s0.6,0,0.9,0
			C1120.4,761.4,1123.6,765.2,1128.1,766.4L1128.1,766.4z M1106.5,764.9c-0.4-4.5-3.6-8.3-8-9.5l0,0c0.4-5,4.7-8.7,9.6-8.3
			c4.4,0.3,8,3.9,8.3,8.3c-4.4,1.2-7.6,5-8,9.5l0,0c-0.3,0-0.6,0-0.9,0C1107.2,764.9,1106.9,764.9,1106.5,764.9 M1104.8,766.4
			c-0.4,5-4.8,8.6-9.7,8.2c-4.4-0.4-7.9-3.8-8.2-8.2c4.4-1.2,7.6-5,8-9.5l0,0c0.3,0,0.6,0,0.9,0c0.3,0,0.6,0,0.9,0.1
			C1097.2,761.4,1100.4,765.2,1104.8,766.4 M1075,755.9c-0.2-5,3.8-9.1,8.7-9.3c5-0.2,9.1,3.8,9.3,8.7c-4.4,1.2-7.6,5-8,9.5l0,0
			c-0.3,0-0.6,0-0.9,0C1079.1,764.8,1075.1,760.8,1075,755.9 M1090.4,762.2c-1,1-2.2,1.7-3.6,2.2c0.5-3.4,2.9-6.1,6.1-7.2
			C1092.7,759.1,1091.8,760.8,1090.4,762.2 M1098.5,757.2c3.2,1.1,5.6,3.8,6.1,7.2C1101.4,763.3,1099.1,760.5,1098.5,757.2
			 M1113.8,762.2c-1,1-2.2,1.7-3.6,2.2c0.5-3.4,2.9-6.1,6.1-7.2C1116,759.1,1115.1,760.8,1113.8,762.2 M1130.8,745
			c-5.7,0-10.4,4.4-10.8,10l0,0c-0.3,0-0.6,0-0.9,0s-0.6,0-0.9,0l0,0c-0.5-5.9-5.7-10.4-11.6-9.9c-5.3,0.4-9.5,4.6-9.9,9.9l0,0
			c-0.3,0-0.6,0-0.9,0s-0.6,0-0.9,0l0,0c-0.5-5.9-5.7-10.4-11.6-9.9c-5.9,0.5-10.4,5.7-9.9,11.6c0.5,5.6,5.1,9.9,10.8,9.9
			c0.3,0,0.6,0,0.9,0l0,0c0.5,5.9,5.7,10.4,11.6,9.9c5.3-0.4,9.5-4.6,9.9-9.9l0,0c0.3,0,0.6,0,0.9,0s0.6,0,0.9,0l0,0
			c0.5,5.9,5.7,10.4,11.6,9.9c5.3-0.4,9.5-4.6,9.9-9.9l0,0c0.3,0,0.6,0,0.9,0c6,0,10.8-4.8,10.8-10.8
			C1141.6,749.9,1136.7,745.1,1130.8,745"/>
		<path class="st1" d="M1150.8,707c3.5,0,5.3-1.6,5.3-4.2c0-2.8-2.3-4.2-5.5-4.2h-12.1v8.4H1150.8z M1150.7,720.8c4.2,0,6-2.1,6-4.7
			s-1.8-4.7-5.8-4.7h-12.2v9.3H1150.7z M1157.6,709.2c2.4,1.5,3.9,4.1,3.8,6.9c0,5.1-3.4,9.2-11,9.2h-16.6v-31.2h16.9
			c7.7,0,10.3,4.4,10.3,8.6C1160.9,705.3,1159.7,707.7,1157.6,709.2"/>
		<path class="st1" d="M1087.4,721.3c-2.1,0-4.1-0.6-5.9-1.7c4.6-5.9,4.6-14.1,0-20c1.8-1.1,3.8-1.7,5.9-1.7
			c6.4,0,11.7,5.2,11.7,11.7C1099.1,716.1,1093.9,721.3,1087.4,721.3 M1068.4,720.8h-9.1v-22.2h9.1c2.1,0,4.1,0.4,6,1.4
			c-4.4,5.7-4.4,13.7,0,19.5l0,0C1072.5,720.3,1070.5,720.8,1068.4,720.8 M1078,716.4c-2.8-4-2.8-9.4,0-13.4
			C1080.9,707,1080.9,712.4,1078,716.4 M1087.5,693.5c-3.4,0-6.8,1.1-9.6,3.1c-3-1.7-6.4-2.6-9.9-2.5h-13.6v31.2h13.6
			c3.5,0.1,6.9-0.8,9.9-2.5l0,0c7.2,5.3,17.4,3.8,22.7-3.4c5.3-7.2,3.8-17.4-3.4-22.7C1094.4,694.6,1091,693.5,1087.5,693.5"/>
		<path class="st1" d="M1114.7,711.3c-7.3-0.4-9.6-4.5-9.6-8.6s2.6-8.6,10.3-8.6h15.2l-1.7,4.5h-13.6c-3.3,0-5.5,1.3-5.5,4.1
			c0,2.5,1.7,3.8,5,4l5.6,0.4c7.4,0.4,10.2,3.8,10.2,9.1c0,5.1-3.4,9.2-11,9.2h-16.3l1.7-4.5h14.7c4.4,0,6.1-2.3,6.1-4.7
			c0-2.8-1.9-4.1-5.6-4.4L1114.7,711.3z"/>
		<rect y="60" class="st1" width="680" height="63"/>
		<rect y="40" class="st1" width="206" height="9"/>
		<rect y="143" class="st1" width="111" height="4"/>
	</g>
</g>
</svg>
