<svg xmlns="http://www.w3.org/2000/svg" width="2215" height="241" viewBox="0 0 2215 241"><defs><style>.cls-1{fill:#6eac56;}</style></defs><g id="Ebene_2" data-name="Ebene 2"><path class="cls-1" d="M61.81,26.67v81.76H99.05V26.67h32.48v196H99.05V137.55H61.81v85.12H29.33v-196Z"/><path class="cls-1" d="M159.53,222.67v-196h86V55.23H192V109h44.8v28.56H192v56.56h54.32v28.56Z"/><path class="cls-1" d="M342.93,222.67,318,144.55H301.77v78.12H269.29v-196H320c29.68,0,49.28,11.76,49.28,41.44v35c0,18.76-7.84,30.52-21.28,36.4l28,83.16ZM301.77,116.55h17.08c10.64,0,17.92-3.92,17.92-17.92V73.15c0-14-7.28-17.92-17.92-17.92H301.77Z"/><path class="cls-1" d="M479.29,222.67h-93.8v-22.4L443.17,53.55H388.85V26.67h88.48v22.4L419.65,195.79h59.64Z"/><path class="cls-1" d="M581.49,222.67h-82.6v-196h32.48V193.55h50.12Z"/><path class="cls-1" d="M600,222.67v-196h32.48v196Z"/><path class="cls-1" d="M759.57,183.47c0,30.24-19.6,41.44-49.28,41.44h-.56c-29.68,0-49.28-10.92-49.28-41.44V65.87c0-29.12,19.6-41.44,49.28-41.44h.56c29.68,0,49.28,12.32,49.28,41.44v35.84H727.09V70.91C727.09,57.19,720.37,53,710,53s-17.08,4.2-17.08,17.92V178.43c0,13.72,6.72,17.92,17.08,17.92s17.08-4.2,17.08-17.92V142.87h32.48Z"/><path class="cls-1" d="M817.8,26.67v81.76H855V26.67h32.48v196H855V137.55H817.8v85.12H785.32v-196Z"/><path class="cls-1" d="M1089.68,222.67h-30.52L1034,88.27l-25.2,134.4H977.12l-30.8-196h31.92l16.24,140,25.2-140h29.12l25.2,140,16.24-140h30.24Z"/><path class="cls-1" d="M1138.4,222.67v-196h32.48v196Z"/><path class="cls-1" d="M1282.6,222.67H1200v-196h32.48V193.55h50.12Z"/><path class="cls-1" d="M1382.56,222.67H1300v-196h32.48V193.55h50.12Z"/><path class="cls-1" d="M1473.84,222.67,1447,137.55l-14.56,28.56v56.56h-32.48v-196h32.48v88.2l37-88.2h34.16L1466,100.31l40.88,122.36Z"/><path class="cls-1" d="M1565.12,24.43h2.24c29.68,0,49.28,11.76,49.28,41.44v117.6c0,29.68-19.6,41.44-49.28,41.44h-2.24c-29.68,0-49.28-11.76-49.28-41.44V65.87C1515.84,35.91,1535.44,24.43,1565.12,24.43Zm1.12,171.92c10.64,0,17.92-3.92,17.92-17.92V70.91c0-14-7.28-17.92-17.92-17.92s-17.92,3.92-17.92,17.92V178.43C1548.32,192.43,1555.6,196.35,1566.24,196.35Z"/><path class="cls-1" d="M1721.36,194.11h-18.2l-29.4-91.28V222.67h-30.24v-196h30.8l37.8,114,38.08-114h31.92v196h-31.36V102.83Z"/><path class="cls-1" d="M1888,194.11h-18.2l-29.4-91.28V222.67h-30.24v-196h30.8l37.8,114,38.08-114h31.92v196h-31.36V102.83Z"/><path class="cls-1" d="M1976.71,222.67v-196h86V55.23h-53.48V109H2054v28.56h-44.8v56.56h54.32v28.56Z"/><path class="cls-1" d="M2086.47,222.67v-196H2119l41.16,121.24V26.67h29.68v196H2159l-42.84-127.4v127.4Z"/></g></svg>