<?xml version="1.0" encoding="utf-8"?>
<!-- Generator: Adobe Illustrator 24.2.0, SVG Export Plug-In . SVG Version: 6.00 Build 0)  -->
<svg version="1.1" id="Ebene_1" xmlns="http://www.w3.org/2000/svg" xmlns:xlink="http://www.w3.org/1999/xlink" x="0px" y="0px"
	 viewBox="0 0 717.1 97.9" style="enable-background:new 0 0 717.1 97.9;" xml:space="preserve">
<style type="text/css">
	.st0{enable-background:new    ;}
	.st1{fill:#FFFFFF;}
</style>
<g class="st0">
	<path class="st1" d="M29.6,70.4l-9.5-25h-0.9H9.9v25H5.5v-58h13.7c8.8,0,13.3,4.1,13.3,12.3v8.4c0,6.3-2.7,10.2-8,11.6l9.9,25.7
		H29.6z M27.9,31.8v-5.5c0-6.9-2.6-9.6-9.1-9.6H9.9v24.8h8.9C25.3,41.4,27.9,38.5,27.9,31.8z"/>
	<path class="st1" d="M62.6,55.5H47l-3.2,14.9h-4.5l12.9-58h5.1l13.1,58h-4.6L62.6,55.5z M61.7,51.5l-6.9-32l-6.9,32H61.7z"/>
	<path class="st1" d="M103.8,58.8c0,8.3-4.3,12.3-13.1,12.3h-0.3c-8.8,0-13.1-3.9-13.1-12.3V12.5h4.5v44.9c0,6.9,2.2,9.6,8.8,9.6
		s8.8-2.7,8.8-9.6V12.5h4.5V58.8z"/>
	<path class="st1" d="M134.9,60.7h-2.6l-13.6-36.9v46.6h-4.2v-58h4.4l14.6,40.2l14.7-40.2h4.6v58h-4.5V23.8L134.9,60.7z"/>
</g>
<g class="st0">
	<path class="st1" d="M401.1,57.5h-10.6l-2.1,12.9h-9.3l10.8-58H402l10.9,58h-9.8L401.1,57.5z M399.9,49.6l-4.1-25.8l-4.1,25.8
		H399.9z"/>
	<path class="st1" d="M439.8,20.9h-9.7v49.5h-9.6V20.9h-9.7v-8.4h29V20.9z"/>
	<path class="st1" d="M454.4,12.5v24.2h11V12.5h9.6v58h-9.6V45.3h-11v25.2h-9.6v-58H454.4z"/>
	<path class="st1" d="M483.3,70.4v-58h25.4v8.4h-15.8v15.9h13.3v8.4h-13.3V62h16.1v8.4H483.3z"/>
	<path class="st1" d="M515.7,70.4v-58h9.6l12.2,35.9V12.5h8.8v58h-9.1l-12.7-37.7v37.7H515.7z"/>
</g>
<g class="st0">
	<path class="st1" d="M224,24.7l-1.5,8.4c-1.1,6.4-4.1,10.3-9.9,11.7l5.3,25.6h-4.7l-5.1-25h-1.1h-9.2l-4.4,25H189l10.2-58h13.7
		C220.8,12.5,225.4,16.6,224,24.7z M211.9,16.6H203l-4.4,24.8h8.9c6.5,0,9.6-2.8,10.8-9.6l1-5.5C220.4,19.3,218.4,16.6,211.9,16.6z"
		/>
	<path class="st1" d="M249.1,11.8h0.7c8,0,12.5,4.1,11.1,12.3l-6.1,34.8c-1.5,8.1-5.8,12.3-15.4,12.3h-0.7c-8,0-12.5-4.1-11.1-12.3
		l6.1-34.8C235.2,15.8,239.5,11.8,249.1,11.8z M239.7,67c6.5,0,9.6-2.7,10.8-9.6l5.6-31.8c1.1-6.9-0.9-9.6-7.5-9.6
		c-6.5,0-9.6,2.7-10.8,9.6l-5.6,31.8C231.2,64.2,233.1,67,239.7,67z"/>
	<path class="st1" d="M286.6,11.8h0.7c8,0,12.5,4.1,11.1,12.3l-6.1,34.8c-1.5,8.1-5.8,12.3-15.4,12.3h-0.7c-8,0-12.5-4.1-11.1-12.3
		l6.1-34.8C272.7,15.8,277,11.8,286.6,11.8z M277.1,67c6.5,0,9.6-2.7,10.9-9.6l5.6-31.8c1.1-6.9-0.9-9.6-7.5-9.6s-9.6,2.7-10.8,9.6
		l-5.6,31.8C268.6,64.2,270.6,67,277.1,67z"/>
	<path class="st1" d="M322.8,60.7h-2.6l-7-36.9L305,70.4h-4.2l10.2-58h4.4l7.5,40.2l21.7-40.2h4.7l-10.2,58h-4.5l8.3-46.6
		L322.8,60.7z"/>
</g>
</svg>
