<svg xmlns="http://www.w3.org/2000/svg" xmlns:xlink="http://www.w3.org/1999/xlink" viewBox="0 0 1280 800">
  <defs>
    <style>
      .cls-1 {
        fill: none;
      }

      .cls-2 {
        isolation: isolate;
      }

      .cls-3 {
        fill: #f8f8f8;
      }

      .cls-4 {
        fill: #6eac56;
        mix-blend-mode: multiply;
      }

      .cls-5 {
        clip-path: url(#clip-path);
      }

      .cls-6 {
        fill: #fff;
      }

      .cls-7 {
        fill: #ffd561;
      }

      .cls-8 {
        fill: #1d1d1b;
      }

      .cls-9 {
        fill: #cd1719;
      }
    </style>
    <clipPath id="clip-path">
      <rect class="cls-1" x="1023.55" y="683" width="160.01" height="97"/>
    </clipPath>
  </defs>
  <title>background</title>
  <g class="cls-2">
    <g id="Ebene_1" data-name="Ebene 1">
      <rect class="cls-3" width="1280" height="800"/>
      <rect class="cls-4" x="1206.93" y="717.13" width="73.07" height="30.56"/>
      <rect class="cls-4" y="60" width="680" height="63"/>
      <rect class="cls-4" y="40" width="206" height="9"/>
      <rect class="cls-4" y="143" width="111" height="4"/>
      <g class="cls-5">
        <path class="cls-6" d="M1155.65,718.61s-7.53-1.49-9.45-2.77c-.72-.48-.13-3.21.71-3.41a48.19,48.19,0,0,1,6.26-1c.92-.07,2.2-.14,3.12,1.92s-.64,5.26-.64,5.26m-94.85,22.9c-.22.45-6.4,1.79-7,1.65s1.07-3.95,1.07-4.23c0,0,.5-1.42,1.35-1.63s3.12-1.28,3.62-.79,1.14,4.55.93,5m118-34.13c2.27-2.27,3.69-7.53,3-12.43s-5.68-9.38-13.78-11.16-27-.21-37.88,1.28-43.69,8.24-47.53,9.38-3,.92-6.75.64-16.13,1.28-19.83,1.78-4.47,1.84-5.33,3.76-.64,3.77-1.27,4.41-20.33,8-20.33,8-1.49.43-2.34,3.63-2.42,11.44-1.28,18,7.67,9.73,9.17,9.87,2.34,0,2,.64-3.27.85-6.55,2.56-7.1,2.56-6.39,11.72,6.9,19.05,11.8,20a20.87,20.87,0,0,0,12.08-.71c4.19-1.35,19-6.39,22.38-7.82,2.63-.64,4.26-2.13,6.54-1.35s5.54,7.25,8.74,8,25.51-6.18,27.57-6.89,1.42-.14,10.65.85,25.09-1.63,31.48-4.26,11.09-9.52,11.72-11.38,4-2,7.25-3,7.46-1.8,9.17-5.19-1-16.7-1.78-21.6-8.17-5.26-8.88-6-.28-5.4-.28-7.39,4.4-3,6.68-5.26"/>
        <path class="cls-7" d="M1056.75,709.44l-24.31,9s-2.62,10.48-1.13,15.15,4.19,5.67,6.61,5.67,8.95-1.77,8.95-1.77l14.64-4.27,2.41,9.8s-20.11,5-25.22,7.11-8.81,3.48-8.67,7.46,1,10.16,5.83,15.35c1.2.92,2.55,2.13,4.33,1.77a108.92,108.92,0,0,0,16.2-4.76c6.61-2.63,21.17-8.24,21.17-8.24l3.27,3.12s5.69,7.39,5.9,7.54,19-5.69,20.39-6.19,14.57-4.4,16.56-4.9,29.84-8.5,34.11-9.52,19.2-3.94,20-7c1-4-.21-13.79-2.2-17.91-1.26-2.61-34.18-8.31-34.68-10.66s1.92-5.47,3.13-6,12.65-1.63,14.78-1.77,12.93-1.14,15.56-5.4,1.56-9.52-2.13-11.51-8.24-3.27-28.71-2-53.07,8.74-64.73,12.86-22,7-22,7"/>
        <path class="cls-8" d="M1157.36,722.59a14.08,14.08,0,0,1-7.68,5.18c-3.83,1.21-12.36.79-12.57.79s7-21,7-21,5.83-.56,7.25-.42,6.25.4,8,4.47-.46,8.67-2,11m-22.24,12s2.41-.17,4.48-.17,7.81-.79,13,2.08,4.62,7.25,3.62,10.9-3,7.93-10,11-16.41,1.7-18,1.63-1.78-.28-1.49-1.13c.28-1.64,8.31-24.3,8.31-24.3m-54.71,6.11c-6.54,12.43-12.94,15.63-21,17.37-3.76,1-13.22.53-13.72,0s17.41-49.81,17.41-49.81,7.32-1.35,12.36-.78c2.06.29,8.74.43,11.3,7s.14,13.85-6.39,26.29m83-34c-3.77-3.84-6.75-5-13.15-5a101.14,101.14,0,0,0-11.15.71s-11.94,36.66-12.44,38.08-.57,2.11-.85,1a17.5,17.5,0,0,0-8.24-11.6c-6.82-4.13-10.59-5-13.22-6.26s-7.32-3.27-6.25-8.88,8.6-9.59,16.27-9.66,9.17.28,11.94,1.13a12.72,12.72,0,0,1,3.91,1.78l2.34-5.75a40.75,40.75,0,0,0-19-2.63c-11.16,1-15.35,4.9-17.34,7.39a13.83,13.83,0,0,0-2.56,4.76s-1.06-4.83-6.89-7.82a26.33,26.33,0,0,0-11.65-2.77s-6.11-.14-18.12,1.63c-.21,0-.36,1.21-1.07,3.27-.64,2.63-6.39,22-9,29.13s-11.16,29.63-10.66,29.78,17.84,2.13,29.42-1.5c12.64-4.61,17.12-11.36,20.11-16.27a79.82,79.82,0,0,0,6.75-14.49c.85-2.84,2-8.32,2-8.32a27.73,27.73,0,0,0,5.25,4.13c1.36.78,5.55,2.91,5.55,2.91s9.8,2.84,11.65,9.38-5.19,14.28-9.81,17.41a21.65,21.65,0,0,1-9.73,3.62c-1.42.28-8.1-.57-10.94-1.7a35,35,0,0,1-5.9-3.27s-5.47,4.54-5.61,4.76,5.87,4.2,12,5.33c7,1.28,14.44,1.35,19.84-.36s10.36-4.33,12.78-7.46c-1,2.56-2,4.9-2.13,5.19s.14.92.14.92,14.78,1.07,21.53.14,14.21-2.7,18.9-7.39c3.15-3.15,7.1-9.23,5.4-17-1.06-4.82-4.76-6.89-6.75-8a10.86,10.86,0,0,0-2.49-1.13s-.5-.07,1.49-1a19.51,19.51,0,0,0,9.38-9.16c2.42-5.4,2.13-11.23-1.63-15.07"/>
        <path class="cls-7" d="M1106.81,760.72c8.87-3.45,13-12.26,11.31-19.85-1.61-7.27-11.68-11.84-20.55-8.38s-14,13.58-11,21.35,11.33,10.33,20.2,6.88"/>
        <path class="cls-8" d="M1099.28,762.6a15.59,15.59,0,0,1-4.88-.76,12.79,12.79,0,0,1-4.86-2.89,13.75,13.75,0,0,1-4.11-11.27,17.14,17.14,0,0,1,1.87-6.31,19.58,19.58,0,0,1,4.13-5.46,19.1,19.1,0,0,1,6-3.77,17.72,17.72,0,0,1,14.62.82,13.87,13.87,0,0,1,4.16,3.31,10.63,10.63,0,0,1,2.27,4.52,17,17,0,0,1-1.73,11.73,18.15,18.15,0,0,1-4,5,19.1,19.1,0,0,1-5.85,3.55,21.46,21.46,0,0,1-6.59,1.5C1100,762.59,1099.64,762.6,1099.28,762.6Zm4.58-30.92a17,17,0,0,0-6.16,1.15c-8.57,3.34-13.7,13.29-10.75,20.88a12.2,12.2,0,0,0,7.68,7.43c3.57,1.18,7.73.91,12-.77l.13.35-.13-.35c8.07-3.14,12.84-11.49,11.08-19.42a11.42,11.42,0,0,0-6.06-7.34A16.66,16.66,0,0,0,1103.86,731.68Z"/>
        <path class="cls-9" d="M1104.92,755a10.45,10.45,0,0,0,6.72-11.8c-1-4.31-7-7-12.22-5s-8.31,8.07-6.52,12.69,6.74,6.14,12,4.09"/>
        <path class="cls-8" d="M1103.47,750.63a5,5,0,0,0,3.21-5.64c-.45-2.07-3.32-3.37-5.84-2.39s-4,3.87-3.12,6.07,3.23,2.94,5.75,2"/>
      </g>
    </g>
  </g>
</svg>
