<svg id="Ebene_1" data-name="Ebene 1" xmlns="http://www.w3.org/2000/svg" viewBox="0 0 90 90">
  <defs>
    <style>
      .cls-1 {
        fill: #fff;
      }

      .cls-2, .cls-3 {
        fill: none;
        stroke: #000;
        stroke-miterlimit: 10;
      }

      .cls-3 {
        stroke-linecap: round;
        stroke-width: 2px;
      }
    </style>
  </defs>
  <title>uhr</title>
  <g>
    <path class="cls-1" d="M45,89.26a44.29,44.29,0,1,1,11.9-1.63A44.38,44.38,0,0,1,45,89.26Z"/>
    <path d="M45,1.49a43.53,43.53,0,1,1-11.69,1.6A43.61,43.61,0,0,1,45,1.49h0M45,0A45,45,0,1,0,88.35,32.93,44.82,44.82,0,0,0,45,0Z"/>
  </g>
  <circle cx="45" cy="45" r="2"/>
  <line class="cls-2" y1="45" x2="8" y2="45"/>
  <line class="cls-2" x1="82" y1="45" x2="90" y2="45"/>
  <line class="cls-2" x1="45" y1="90" x2="45" y2="82"/>
  <line class="cls-2" x1="45" y1="8" x2="45"/>
  <line class="cls-2" x1="21.82" y1="6.43" x2="25.94" y2="13.28"/>
  <line class="cls-2" x1="64.06" y1="76.72" x2="68.18" y2="83.57"/>
  <line class="cls-2" x1="5.27" y1="66.13" x2="12.33" y2="62.37"/>
  <line class="cls-2" x1="77.67" y1="27.63" x2="84.73" y2="23.87"/>
  <line class="cls-2" x1="20.49" y1="82.74" x2="24.85" y2="76.03"/>
  <line class="cls-2" x1="65.15" y1="13.97" x2="69.51" y2="7.26"/>
  <line class="cls-2" x1="5.64" y1="23.18" x2="12.64" y2="27.06"/>
  <line class="cls-2" x1="77.36" y1="62.94" x2="84.36" y2="66.82"/>
  <line class="cls-3" x1="45" y1="45" x2="21.42" y2="21.92"/>
  <line class="cls-3" x1="45" y1="44.5" x2="45" y2="26.5"/>
</svg>
