<svg id="Ebene_1" data-name="Ebene 1" xmlns="http://www.w3.org/2000/svg" xmlns:xlink="http://www.w3.org/1999/xlink" width="150" height="150" viewBox="0 0 150 150"><defs><style>.cls-1{fill:none;}.cls-2{clip-path:url(#clip-path);}.cls-3{fill:#6eac56;}</style><clipPath id="clip-path"><rect class="cls-1" width="150" height="150"/></clipPath></defs><g class="cls-2"><path class="cls-3" d="M67.31,99.07V53.35c0-7.38-3.09-9.89-8.93-9.89S49.44,46,49.44,53.35V99.07c0,7.38,3.1,9.88,8.94,9.88s8.93-2.5,8.93-9.88M103,117.86H92.19V43.24A18.8,18.8,0,0,0,97,34.55H103ZM78.13,101.21c0,12.26-7.13,17.61-19.27,17.61h-1c-12.14,0-19.27-5.35-19.27-17.61v-50c0-12.25,7.13-17.6,19.27-17.6h1C71,33.6,78.13,39,78.13,51.2ZM150,0H0V150H150Z"/></g></svg>