<?xml version="1.0" encoding="utf-8"?>
<!-- Generator: Adobe Illustrator 24.3.0, SVG Export Plug-In . SVG Version: 6.00 Build 0)  -->
<svg version="1.1" id="Ebene_1" xmlns="http://www.w3.org/2000/svg" xmlns:xlink="http://www.w3.org/1999/xlink" x="0px" y="0px"
	 viewBox="0 0 150 212.8" style="enable-background:new 0 0 150 212.8;" xml:space="preserve">
<style type="text/css">
	.st0{clip-path:url(#SVGID_2_);}
	.st1{fill:#6EAC56;}
</style>
<g>
	<defs>
		<rect id="SVGID_1_" y="0" width="150" height="150"/>
	</defs>
	<clipPath id="SVGID_2_">
		<use xlink:href="#SVGID_1_"  style="overflow:visible;"/>
	</clipPath>
	<g class="st0">
		<path class="st1" d="M67.3,99.1V53.3c0-7.4-3.1-9.9-8.9-9.9s-8.9,2.5-8.9,9.9v45.7c0,7.4,3.1,9.9,8.9,9.9S67.3,106.4,67.3,99.1
			 M103,117.9H92.2V43.2c2.4-2.4,4-5.4,4.8-8.7h6V117.9z M78.1,101.2c0,12.3-7.1,17.6-19.3,17.6h-1c-12.1,0-19.3-5.3-19.3-17.6v-50
			c0-12.3,7.1-17.6,19.3-17.6h1c12.1,0,19.3,5.4,19.3,17.6V101.2z M150,0H0v150h150V0z"/>
	</g>
</g>
<g>
	<path class="st1" d="M8.8,175.7c0,2.7-1.6,3.8-4.3,3.8H4.3c-2.7,0-4.3-1.1-4.3-3.8V165c0-2.6,1.6-3.8,4.3-3.8h0.2
		c2.7,0,4.3,1.2,4.3,3.8v2.5H6.5v-2c0-1.6-0.7-2.1-2-2.1s-2,0.5-2,2.1v9.8c0,1.6,0.7,2.1,2,2.1s2-0.5,2-2.1v-3H4.3v-2h4.5V175.7z"/>
	<path class="st1" d="M11.5,179.2v-17.8H19v2.1h-5.1v5.6h4.3v2.1h-4.3v5.8h5.2v2.1H11.5z"/>
	<path class="st1" d="M27.1,167.7v-2.4c0-1.4-0.7-2-1.9-2c-1.2,0-1.9,0.6-1.9,2v1.2c0,1.1,0.4,1.4,1.4,2l2.3,1.3
		c1.5,0.9,2.5,1.7,2.5,3.4v2.5c0,2.7-1.5,3.7-4.2,3.7h-0.1c-2.7,0-4.2-1-4.2-3.7v-3h2.3v2.6c0,1.4,0.7,2,1.9,2c1.2,0,1.9-0.6,1.9-2
		v-1.4c0-1.1-0.4-1.5-1.4-2.1l-2.3-1.3c-1.6-0.9-2.5-1.7-2.5-3.4v-2.2c0-2.6,1.8-3.7,4.2-3.7h0.1c2.4,0,4.2,1.1,4.2,3.7v2.8H27.1z"
		/>
	<path class="st1" d="M40.5,175.7c0,2.7-1.6,3.8-4.3,3.8h-0.1c-2.7,0-4.3-1.1-4.3-3.8V165c0-2.6,1.6-3.8,4.3-3.8h0.1
		c2.7,0,4.3,1.2,4.3,3.8v3.2h-2.4v-2.7c0-1.6-0.7-2.1-2-2.1s-2,0.6-2,2.1v9.8c0,1.5,0.7,2.1,2,2.1s2-0.6,2-2.1v-3.2h2.4V175.7z"/>
	<path class="st1" d="M45.5,161.4v7.7h4.2v-7.7h2.4v17.8h-2.4v-8h-4.2v8h-2.4v-17.8H45.5z"/>
	<path class="st1" d="M60.8,175h-3.8l-0.8,4.2h-2.3l3.5-17.8h2.9l3.6,17.8h-2.4L60.8,175z M58,160.1h-2.3v-2.5H58V160.1z M60.4,173
		l-1.5-8.6l-1.5,8.6H60.4z M62,160.1h-2.3v-2.5H62V160.1z"/>
	<path class="st1" d="M65.7,161.4h7.4v2.1h-5v5.7h4.2v2.1h-4.2v7.8h-2.4V161.4z"/>
	<path class="st1" d="M82.5,163.6h-3.1v15.7H77v-15.7h-3.1v-2.1h8.6V163.6z"/>
	<path class="st1" d="M90,167.7v-2.4c0-1.4-0.7-2-1.9-2c-1.2,0-1.9,0.6-1.9,2v1.2c0,1.1,0.4,1.4,1.4,2l2.3,1.3
		c1.5,0.9,2.5,1.7,2.5,3.4v2.5c0,2.7-1.6,3.7-4.2,3.7H88c-2.7,0-4.2-1-4.2-3.7v-3h2.3v2.6c0,1.4,0.7,2,1.9,2s1.9-0.6,1.9-2v-1.4
		c0-1.1-0.4-1.5-1.4-2.1l-2.3-1.3c-1.6-0.9-2.5-1.7-2.5-3.4v-2.2c0-2.6,1.8-3.7,4.2-3.7h0.1c2.4,0,4.2,1.1,4.2,3.7v2.8H90z"/>
	<path class="st1" d="M100.6,167.7v-2.4c0-1.4-0.7-2-1.9-2c-1.2,0-1.9,0.6-1.9,2v1.2c0,1.1,0.4,1.4,1.4,2l2.3,1.3
		c1.5,0.9,2.5,1.7,2.5,3.4v2.5c0,2.7-1.6,3.7-4.2,3.7h-0.1c-2.7,0-4.2-1-4.2-3.7v-3h2.3v2.6c0,1.4,0.7,2,1.9,2c1.2,0,1.9-0.6,1.9-2
		v-1.4c0-1.1-0.4-1.5-1.4-2.1l-2.3-1.3c-1.6-0.9-2.5-1.7-2.5-3.4v-2.2c0-2.6,1.8-3.7,4.2-3.7h0.1c2.4,0,4.2,1.1,4.2,3.7v2.8H100.6z"
		/>
	<path class="st1" d="M112.8,163.6h-3.1v15.7h-2.4v-15.7h-3.1v-2.1h8.6V163.6z"/>
	<path class="st1" d="M114.6,179.2v-17.8h7.5v2.1h-5.1v5.6h4.3v2.1h-4.3v5.8h5.2v2.1H114.6z"/>
	<path class="st1" d="M131.6,179.2h-7.2v-17.8h2.4v15.6h4.8V179.2z"/>
	<path class="st1" d="M140.6,179.2h-7.2v-17.8h2.4v15.6h4.8V179.2z"/>
	<path class="st1" d="M142.4,179.2v-17.8h7.5v2.1h-5.1v5.6h4.3v2.1h-4.3v5.8h5.2v2.1H142.4z"/>
</g>
<g>
	<path class="st1" d="M2.1,189.6v7.3h5.2v-7.3h1.2v16.1H7.3V198H2.1v7.6H0.9v-16.1H2.1z"/>
	<path class="st1" d="M11.6,205.7v-16.1h6.3v1.2h-5.1v6.2h4.4v1.2h-4.4v6.4H18v1.1H11.6z"/>
	<path class="st1" d="M25.9,201.5h-4.3l-0.9,4.1h-1.2l3.6-16.1h1.4l3.6,16.1h-1.3L25.9,201.5z M25.7,200.4l-1.9-8.9l-1.9,8.9H25.7z"
		/>
	<path class="st1" d="M37.6,193v9.3c0,2.3-1.2,3.4-3.7,3.4h-3.7v-16.1h3.7C36.3,189.6,37.6,190.7,37.6,193z M33.8,190.7h-2.4v13.8
		h2.4c1.8,0,2.5-0.8,2.5-2.7v-8.5C36.3,191.5,35.6,190.7,33.8,190.7z"/>
	<path class="st1" d="M48,192.8v9.7c0,2.1-1.1,3.2-3.1,3.4v2.1h-1.2v-2.1c-2.1-0.1-3.2-1.3-3.2-3.4v-9.7c0-2.3,1.2-3.4,3.7-3.4h0.2
		C46.7,189.4,48,190.5,48,192.8z M46.7,193.2c0-1.9-0.7-2.7-2.5-2.7c-1.8,0-2.5,0.8-2.5,2.7v8.8c0,1.9,0.7,2.7,2.5,2.7
		c1.8,0,2.5-0.8,2.5-2.7V193.2z"/>
	<path class="st1" d="M58.2,202.4c0,2.3-1.2,3.4-3.6,3.4h-0.1c-2.4,0-3.6-1.1-3.6-3.4v-12.9h1.2V202c0,1.9,0.6,2.7,2.4,2.7
		s2.4-0.8,2.4-2.7v-12.5h1.2V202.4z"/>
	<path class="st1" d="M66.6,201.5h-4.3l-0.9,4.1h-1.2l3.6-16.1h1.4l3.6,16.1h-1.3L66.6,201.5z M66.3,200.4l-1.9-8.9l-1.9,8.9H66.3z"
		/>
	<path class="st1" d="M75.9,190.7h-3v14.9h-1.2v-14.9h-3v-1.2h7.3V190.7z"/>
	<path class="st1" d="M77.9,205.7v-16.1h6.3v1.2h-5.1v6.2h4.4v1.2h-4.4v6.4h5.2v1.1H77.9z"/>
	<path class="st1" d="M93.4,205.7l-2.6-6.9h-0.3h-2.6v6.9h-1.2v-16.1h3.8c2.4,0,3.7,1.2,3.7,3.4v2.3c0,1.7-0.7,2.8-2.2,3.2l2.8,7.1
		H93.4z M92.9,194.9v-1.5c0-1.9-0.7-2.7-2.5-2.7h-2.5v6.9h2.5C92.2,197.6,92.9,196.8,92.9,194.9z"/>
	<path class="st1" d="M102.6,195.1v-2.1c0-1.8-0.6-2.6-2.4-2.6s-2.4,0.8-2.4,2.6v1.1c0,1.2,0.4,1.5,1.6,2.2l2.5,1.4
		c1.1,0.6,1.9,1.5,1.9,2.7v2.1c0,2.3-1.2,3.4-3.6,3.4h0c-2.4,0-3.6-1-3.6-3.4v-2.6h1.2v2.3c0,1.7,0.6,2.6,2.4,2.6
		c1.7,0,2.4-0.9,2.4-2.6v-1.3c0-1.2-0.5-1.6-1.7-2.3l-2.4-1.3c-1.3-0.8-1.9-1.4-1.9-2.7v-1.9c0-2.2,1.4-3.3,3.6-3.3h0
		c2.2,0,3.6,1.1,3.6,3.3v2.4H102.6z"/>
</g>
</svg>
